<svg width="175" height="52" viewBox="0 0 175 52" fill="none" xmlns="http://www.w3.org/2000/svg">
<path fill-rule="evenodd" clip-rule="evenodd" d="M66.9919 17.4689V12.7679H51.3105V36.8562H57.1781V27.1111H64.5213V22.5474H57.1781V17.4689H66.9919ZM97.3552 21.732V12.7679H90.4582L83.767 29.4444L77.0072 12.7679H70.0758V36.8562H75.9435V22.3758L81.365 36.8562H86.1003L86.4037 36.0427L86.3562 36.0294L90.9314 21.732H97.3552Z" fill="#204051"/>
<path d="M95.7399 23.2575C97.1307 23.2575 98.3325 23.5198 99.3451 24.0444C100.37 24.5569 101.151 25.295 101.688 26.2588C102.237 27.2226 102.511 28.3573 102.511 29.6627C102.511 30.9682 102.237 32.1028 101.688 33.0667C101.151 34.0183 100.37 34.7503 99.3451 35.2627C98.3325 35.763 97.1307 36.0131 95.7399 36.0131H91.7686V23.2575H95.7399ZM95.7399 34.6405C97.3869 34.6405 98.6436 34.2074 99.5098 33.3412C100.376 32.4627 100.809 31.2366 100.809 29.6627C100.809 28.0767 100.37 26.8383 99.4915 25.9477C98.6253 25.0571 97.3747 24.6118 95.7399 24.6118H93.434V34.6405H95.7399ZM106.373 24.6118V28.8758H111.022V30.2484H106.373V34.6405H111.571V36.0131H104.708V23.2392H111.571V24.6118H106.373ZM118.135 36.1412C117.293 36.1412 116.537 35.9948 115.866 35.702C115.207 35.3969 114.688 34.9821 114.31 34.4575C113.932 33.9207 113.737 33.3046 113.724 32.6091H115.5C115.561 33.207 115.805 33.7133 116.232 34.1281C116.671 34.5307 117.305 34.732 118.135 34.732C118.928 34.732 119.55 34.5368 120.002 34.1464C120.465 33.7438 120.697 33.2314 120.697 32.6091C120.697 32.1211 120.563 31.7246 120.294 31.4196C120.026 31.1146 119.69 30.8828 119.288 30.7242C118.885 30.5656 118.342 30.3948 117.659 30.2118C116.817 29.9921 116.14 29.7725 115.628 29.5529C115.127 29.3333 114.694 28.9917 114.328 28.5281C113.975 28.0523 113.798 27.4179 113.798 26.6248C113.798 25.9294 113.975 25.3133 114.328 24.7765C114.682 24.2396 115.176 23.8248 115.811 23.532C116.457 23.2392 117.195 23.0928 118.025 23.0928C119.221 23.0928 120.197 23.3917 120.953 23.9895C121.722 24.5874 122.155 25.3804 122.253 26.3686H120.422C120.361 25.8806 120.105 25.4536 119.654 25.0876C119.202 24.7094 118.605 24.5202 117.86 24.5202C117.165 24.5202 116.598 24.7033 116.158 25.0693C115.719 25.4231 115.5 25.9233 115.5 26.5699C115.5 27.0335 115.628 27.4118 115.884 27.7046C116.152 27.9974 116.476 28.2231 116.854 28.3817C117.244 28.5281 117.787 28.6989 118.483 28.8941C119.324 29.1259 120.002 29.3577 120.514 29.5895C121.026 29.8091 121.466 30.1569 121.832 30.6327C122.198 31.0963 122.381 31.7307 122.381 32.5359C122.381 33.1582 122.216 33.7438 121.887 34.2928C121.557 34.8418 121.069 35.2871 120.422 35.6287C119.776 35.9704 119.013 36.1412 118.135 36.1412ZM126.497 23.2575V36.0131H124.831V23.2575H126.497ZM138.998 26.9542C138.644 26.21 138.132 25.6366 137.461 25.234C136.789 24.8192 136.009 24.6118 135.118 24.6118C134.227 24.6118 133.422 24.8192 132.702 25.234C131.995 25.6366 131.434 26.2222 131.019 26.9908C130.616 27.7473 130.415 28.6257 130.415 29.6261C130.415 30.6266 130.616 31.505 131.019 32.2614C131.434 33.0179 131.995 33.6035 132.702 34.0183C133.422 34.4209 134.227 34.6222 135.118 34.6222C136.362 34.6222 137.387 34.2501 138.193 33.5059C138.998 32.7616 139.467 31.7551 139.602 30.4863H134.514V29.132H141.377V30.4131C141.279 31.4623 140.95 32.4261 140.389 33.3046C139.827 34.1708 139.089 34.8601 138.174 35.3725C137.259 35.8728 136.24 36.1229 135.118 36.1229C133.935 36.1229 132.855 35.8484 131.879 35.2993C130.903 34.7381 130.128 33.9634 129.555 32.9752C128.993 31.9869 128.713 30.8706 128.713 29.6261C128.713 28.3817 128.993 27.2653 129.555 26.2771C130.128 25.2767 130.903 24.5019 131.879 23.9529C132.855 23.3917 133.935 23.1111 135.118 23.1111C136.472 23.1111 137.668 23.4466 138.705 24.1176C139.754 24.7887 140.517 25.7342 140.993 26.9542H138.998ZM153.608 36.0131H151.942L145.244 25.8562V36.0131H143.579V23.2392H145.244L151.942 33.3778V23.2392H153.608V36.0131ZM160.491 36.1412C159.649 36.1412 158.893 35.9948 158.222 35.702C157.563 35.3969 157.044 34.9821 156.666 34.4575C156.288 33.9207 156.093 33.3046 156.08 32.6091H157.856C157.917 33.207 158.161 33.7133 158.588 34.1281C159.027 34.5307 159.661 34.732 160.491 34.732C161.284 34.732 161.906 34.5368 162.358 34.1464C162.821 33.7438 163.053 33.2314 163.053 32.6091C163.053 32.1211 162.919 31.7246 162.65 31.4196C162.382 31.1146 162.046 30.8828 161.644 30.7242C161.241 30.5656 160.698 30.3948 160.015 30.2118C159.173 29.9921 158.496 29.7725 157.984 29.5529C157.483 29.3333 157.05 28.9917 156.684 28.5281C156.331 28.0523 156.154 27.4179 156.154 26.6248C156.154 25.9294 156.331 25.3133 156.684 24.7765C157.038 24.2396 157.532 23.8248 158.167 23.532C158.813 23.2392 159.551 23.0928 160.381 23.0928C161.577 23.0928 162.553 23.3917 163.309 23.9895C164.078 24.5874 164.511 25.3804 164.609 26.3686H162.778C162.717 25.8806 162.461 25.4536 162.01 25.0876C161.558 24.7094 160.961 24.5202 160.216 24.5202C159.521 24.5202 158.954 24.7033 158.514 25.0693C158.075 25.4231 157.856 25.9233 157.856 26.5699C157.856 27.0335 157.984 27.4118 158.24 27.7046C158.508 27.9974 158.832 28.2231 159.21 28.3817C159.6 28.5281 160.143 28.6989 160.839 28.8941C161.68 29.1259 162.358 29.3577 162.87 29.5895C163.382 29.8091 163.822 30.1569 164.188 30.6327C164.554 31.0963 164.737 31.7307 164.737 32.5359C164.737 33.1582 164.572 33.7438 164.243 34.2928C163.913 34.8418 163.425 35.2871 162.778 35.6287C162.132 35.9704 161.369 36.1412 160.491 36.1412Z" fill="#204051"/>
<path d="M170.391 17.5294C171.161 17.5294 171.847 17.7048 172.449 18.0556C173.052 18.3987 173.517 18.8791 173.845 19.4967C174.18 20.1067 174.348 20.8045 174.348 21.5899C174.348 22.3753 174.18 23.0768 173.845 23.6944C173.517 24.3045 173.052 24.7849 172.449 25.1356C171.847 25.4788 171.161 25.6503 170.391 25.6503C169.613 25.6503 168.923 25.4788 168.32 25.1356C167.718 24.7849 167.249 24.3045 166.913 23.6944C166.578 23.0768 166.41 22.3753 166.41 21.5899C166.41 20.8045 166.578 20.1067 166.913 19.4967C167.249 18.8791 167.718 18.3987 168.32 18.0556C168.923 17.7048 169.613 17.5294 170.391 17.5294ZM170.391 17.9869C169.681 17.9869 169.064 18.1394 168.538 18.4444C168.011 18.7418 167.607 19.1612 167.325 19.7026C167.043 20.244 166.902 20.8731 166.902 21.5899C166.902 22.299 167.043 22.9281 167.325 23.4771C167.607 24.0185 168.011 24.4417 168.538 24.7467C169.064 25.0517 169.681 25.2042 170.391 25.2042C171.092 25.2042 171.702 25.0517 172.221 24.7467C172.747 24.4417 173.151 24.0185 173.433 23.4771C173.715 22.9281 173.856 22.299 173.856 21.5899C173.856 20.8731 173.715 20.244 173.433 19.7026C173.151 19.1612 172.747 18.7418 172.221 18.4444C171.702 18.1394 171.092 17.9869 170.391 17.9869ZM170.368 18.9363C169.91 18.9363 169.491 19.043 169.109 19.2565C168.736 19.47 168.438 19.7789 168.217 20.183C167.996 20.5795 167.886 21.0447 167.886 21.5784C167.886 22.1122 167.996 22.5812 168.217 22.9853C168.438 23.3818 168.736 23.6906 169.109 23.9118C169.491 24.1253 169.91 24.232 170.368 24.232C170.94 24.232 171.435 24.0795 171.855 23.7745C172.274 23.4619 172.56 23.0463 172.712 22.5278H171.752C171.523 23.1607 171.062 23.4771 170.368 23.4771C169.91 23.4771 169.536 23.3132 169.247 22.9853C168.957 22.6574 168.812 22.1923 168.812 21.5899C168.812 20.9798 168.957 20.5109 169.247 20.183C169.536 19.8551 169.91 19.6912 170.368 19.6912C170.703 19.6912 170.993 19.775 171.237 19.9428C171.481 20.1029 171.653 20.3355 171.752 20.6405H172.712C172.568 20.0991 172.285 19.6797 171.866 19.3823C171.447 19.085 170.947 18.9363 170.368 18.9363Z" fill="#204051"/>
<path d="M40.0604 28.0485H11.068L4.98944 31.7101L11.068 35.683H40.0604L46.1389 31.7101L40.0604 28.0485Z" fill="#56432F"/>
<path d="M36.0253 28.7331H11.8667L8.4021 30.8595H38.7119L36.0253 28.7331Z" fill="#727272"/>
<path d="M13.101 22.5093H12.4475V28.8783H13.101V22.5093Z" fill="#ADADAD"/>
<path d="M13.1633 26.0465C13.1633 26.2643 12.9869 26.4303 12.7795 26.4303C12.5617 26.4303 12.3957 26.254 12.3957 26.0465V25.5901C12.3957 25.3722 12.572 25.2063 12.7795 25.2063C12.9973 25.2063 13.1633 25.3826 13.1633 25.5901V26.0465Z" fill="#ADADAD"/>
<path d="M13.101 28.8783H12.4475V28.9613H13.101V28.8783Z" fill="#D8D7D6"/>
<path d="M13.101 28.702H12.4475V28.8783H13.101V28.702Z" fill="#BCBCBC"/>
<path d="M12.8832 27.9344L12.7794 28.5049L12.6653 27.9344V22.5093H12.8832V27.9344Z" fill="#757575"/>
<path d="M44.7592 27.5298C45.6644 27.5298 46.3982 27.1583 46.3982 26.7C46.3982 26.2417 45.6644 25.8702 44.7592 25.8702C43.8541 25.8702 43.1203 26.2417 43.1203 26.7C43.1203 27.1583 43.8541 27.5298 44.7592 27.5298Z" fill="#56432F"/>
<path d="M34.6976 23.474L41.5645 23.4636V24.252L36.8759 24.6461C36.8759 24.6461 35.9631 24.5943 35.9631 25.476L35.8282 29.0754H34.4797L34.6976 23.474Z" fill="#262625"/>
<path d="M41.2429 24.3972C41.2429 24.3972 41.7304 25.0714 41.6371 27.1253H42.4047V26.2125H42.0624C42.0624 26.2125 42.1142 24.2001 41.5437 23.9823L41.2429 24.3972Z" fill="#262625"/>
<path d="M44.5414 26.2125H42.3008V27.1253H44.5414V26.2125Z" fill="#56432F"/>
<path d="M41.5955 15.2482C41.5955 15.6217 41.2843 15.9225 40.8902 15.9225H33.7017C33.3075 15.9225 32.9963 15.6217 32.9963 15.2482C32.9963 14.8748 33.3075 14.574 33.7017 14.574H40.8902C41.2843 14.574 41.5955 14.8748 41.5955 15.2482Z" fill="#282826"/>
<path d="M32.3325 9.34604H29.1791V13.0077H32.3325V9.34604Z" fill="#A3D5E0"/>
<path d="M31.7828 9.34604H31.1812V13.0077H31.7828V9.34604Z" fill="#D9EAED"/>
<path d="M30.9633 8.23612L30.7558 8.16351L30.5691 8.23612V9.00372H30.9633V8.23612Z" fill="#3A3A38"/>
<path d="M30.7558 8.64069C30.0816 8.64069 29.1791 9.34605 29.1791 9.34605H32.3325C32.3325 9.34605 31.4301 8.64069 30.7558 8.64069Z" fill="#A79587"/>
<path d="M32.3325 12.655H29.1791V13.2255H32.3325V12.655Z" fill="#A79587"/>
<path d="M13.1011 24.3661C13.1011 24.3661 12.9558 24.4076 12.7691 24.4076C12.5824 24.4076 12.4372 24.3661 12.4372 24.3661V23.0591H13.0907V24.3661H13.1011Z" fill="#757575"/>
<path d="M13.1011 11.0576C13.1011 11.0576 12.9558 11.0991 12.7691 11.0991C12.5824 11.0991 12.4372 11.0576 12.4372 11.0576V9.75058H13.0907V11.0576H13.1011Z" fill="#757575"/>
<path d="M11.4932 23.1628V10.5182C11.4932 10.5182 12.4579 10.3833 13.4122 10.819C14.3769 11.2546 16.5137 13.7441 17.3851 13.962C18.2564 14.1798 21.8766 14.3976 23.4532 14.2628C25.0196 14.1279 28.2559 13.2151 29.1272 13.1321C29.1272 13.1321 33.3179 12.3438 34.3656 14.5325C34.3656 14.5325 34.9776 19.2418 34.8842 22.9035C34.7909 26.5651 34.7079 30.0608 34.7079 30.0608H28.1626C28.1626 30.0608 26.9386 30.2371 26.9386 29.1895C26.9386 29.1895 27.8514 27.1875 28.0277 26.6585C28.0277 26.6585 29.1584 24.4801 28.3285 20.7666C28.1107 19.7708 26.4925 18.495 24.1897 18.2771C21.8765 18.0593 17.6029 17.6236 17.6029 17.6236L14.7711 18.8476C14.7711 18.8476 14.0761 22.167 13.8064 22.5508C13.796 22.5508 13.8894 23.3391 11.4932 23.1628Z" fill="#3A3A38"/>
<path d="M29.065 21.2438C28.8057 18.1942 23.4428 17.883 23.4428 17.883C22.6545 17.7066 17.468 17.3125 17.468 17.3125L14.1487 18.6195L13.2981 23.028C13.8375 22.8413 13.8064 22.5404 13.8064 22.5404C14.0657 22.1463 14.7711 18.8373 14.7711 18.8373L17.6029 17.6133C17.6029 17.6133 21.8765 18.049 24.1897 18.2668C26.5029 18.4846 28.1107 19.7605 28.3285 20.7563C29.1583 24.4594 28.0277 26.6481 28.0277 26.6481C27.8513 27.1668 26.9385 29.1791 26.9385 29.1791C26.9385 29.5733 27.1149 29.8015 27.3327 29.9156C29.9467 25.5486 29.065 21.2438 29.065 21.2438Z" fill="#262625"/>
<path d="M12.1882 20.5488C12.8642 20.5488 13.4122 20.0008 13.4122 19.3248C13.4122 18.6488 12.8642 18.1008 12.1882 18.1008C11.5122 18.1008 10.9642 18.6488 10.9642 19.3248C10.9642 20.0008 11.5122 20.5488 12.1882 20.5488Z" fill="#363833"/>
<path d="M12.1882 20.0613C12.5949 20.0613 12.9247 19.7315 12.9247 19.3248C12.9247 18.9181 12.5949 18.5883 12.1882 18.5883C11.7815 18.5883 11.4517 18.9181 11.4517 19.3248C11.4517 19.7315 11.7815 20.0613 12.1882 20.0613Z" fill="#595B56"/>
<path d="M32.0318 25.8702C32.8166 25.8702 33.4528 25.0017 33.4528 23.9304C33.4528 22.8591 32.8166 21.9907 32.0318 21.9907C31.2469 21.9907 30.6107 22.8591 30.6107 23.9304C30.6107 25.0017 31.2469 25.8702 32.0318 25.8702Z" fill="#D7D1C5"/>
<path d="M13.6716 23.6814H12.9766V23.9096H13.6716V23.6814Z" fill="#757575"/>
<path d="M13.5574 24.2001C13.6548 24.2001 13.7337 24.0143 13.7337 23.7852C13.7337 23.556 13.6548 23.3703 13.5574 23.3703C13.46 23.3703 13.381 23.556 13.381 23.7852C13.381 24.0143 13.46 24.2001 13.5574 24.2001Z" fill="#757575"/>
<path d="M12.4994 27.3638H11.8044V27.592H12.4994V27.3638Z" fill="#ADADAD"/>
<path d="M11.9185 27.9032C12.0159 27.9032 12.0949 27.7175 12.0949 27.4883C12.0949 27.2592 12.0159 27.0734 11.9185 27.0734C11.8211 27.0734 11.7422 27.2592 11.7422 27.4883C11.7422 27.7175 11.8211 27.9032 11.9185 27.9032Z" fill="#ADADAD"/>
<path d="M13.101 28.9509H12.4475V29.3451H12.6861C12.6861 29.2102 12.6965 29.1272 12.7794 29.1272C12.8624 29.1272 12.8728 29.2206 12.8728 29.3451H13.101V28.9509Z" fill="#C6C6C6"/>
<path d="M13.101 29.3347H12.4475V29.4177H12.6861C12.6861 29.3866 12.6861 29.3658 12.6861 29.3451H12.8728C12.8728 29.3658 12.8728 29.397 12.8728 29.4177H13.101V29.3347Z" fill="#5B5B5A"/>
<path d="M12.7795 29.1273C12.6965 29.1273 12.6862 29.2206 12.6862 29.3451C12.6862 29.3658 12.6862 29.397 12.6862 29.4177H12.8729C12.8729 29.3866 12.8729 29.3658 12.8729 29.3451C12.8729 29.2102 12.8625 29.1273 12.7795 29.1273Z" fill="#727272"/>
<path d="M40.05 15.1341C40.05 14.7503 40.4027 14.4391 40.8383 14.4391C41.274 14.4391 41.6267 14.7503 41.6267 15.1341V23.9823C41.6267 24.3661 41.274 24.6773 40.8383 24.6773C40.4027 24.6773 40.05 24.3661 40.05 23.9823V15.1341Z" fill="#303030"/>
<path d="M40.05 15.1341C40.05 14.7503 40.4027 14.4391 40.8383 14.4391V24.6773C40.4027 24.6773 40.05 24.3661 40.05 23.9823V15.1341Z" fill="#141414"/>
<path d="M46.1389 31.7101H4.98944V37.2078H46.1389V31.7101Z" fill="#53372B"/>
<path d="M28.5878 14.1798C28.5878 14.1798 33.3386 12.655 33.7742 16.0988C33.7742 16.0988 30.5483 15.4868 28.5878 14.1798Z" fill="#AAAAAA"/>
<path d="M12.9559 9.02444H12.5617V10.2381H12.9559V9.02444Z" fill="#757575"/>
<path d="M12.7588 9.53272C13.1541 9.53272 13.4745 9.39804 13.4745 9.23191C13.4745 9.06577 13.1541 8.93109 12.7588 8.93109C12.3635 8.93109 12.043 9.06577 12.043 9.23191C12.043 9.39804 12.3635 9.53272 12.7588 9.53272Z" fill="#757575"/>
<path d="M35.0191 12.043C35.0191 11.7111 35.4133 11.4414 35.9008 11.4414C36.3883 11.4414 36.7825 11.7111 36.7825 12.043V18.4431C36.7825 18.7751 36.3883 19.0448 35.9008 19.0448C35.4133 19.0448 35.0191 18.7751 35.0191 18.4431V12.043Z" fill="#565656"/>
<path d="M35.8903 11.4414V19.0344C36.3778 19.0344 36.772 18.7647 36.772 18.4327V12.043C36.772 11.7111 36.3778 11.4414 35.8903 11.4414Z" fill="#141414"/>
<path d="M37.2285 10.4456C37.2285 9.95804 37.7887 9.5535 38.4836 9.5535C39.1786 9.5535 39.7388 9.94767 39.7388 10.4456V20.0094C39.7388 20.497 39.1786 20.9015 38.4836 20.9015C37.7887 20.9015 37.2285 20.5073 37.2285 20.0094V10.4456Z" fill="#B5A8A0"/>
<path d="M38.4837 9.5535V20.9015C39.1787 20.9015 39.7388 20.5073 39.7388 20.0094V10.4456C39.7285 9.95804 39.1683 9.5535 38.4837 9.5535Z" fill="#A79587"/>
</svg>
