<svg width="52" height="52" viewBox="0 0 52 52" fill="none" xmlns="http://www.w3.org/2000/svg">
<path d="M40.0604 28.0485H11.068L4.98944 31.7101L11.068 35.683H40.0604L46.1389 31.7101L40.0604 28.0485Z" fill="#56432F"/>
<path d="M36.0253 28.7331H11.8667L8.4021 30.8595H38.7119L36.0253 28.7331Z" fill="#727272"/>
<path d="M13.101 22.5093H12.4475V28.8783H13.101V22.5093Z" fill="#ADADAD"/>
<path d="M13.1633 26.0465C13.1633 26.2643 12.9869 26.4303 12.7795 26.4303C12.5617 26.4303 12.3957 26.254 12.3957 26.0465V25.5901C12.3957 25.3722 12.572 25.2063 12.7795 25.2063C12.9973 25.2063 13.1633 25.3826 13.1633 25.5901V26.0465Z" fill="#ADADAD"/>
<path d="M13.101 28.8783H12.4475V28.9613H13.101V28.8783Z" fill="#D8D7D6"/>
<path d="M13.101 28.702H12.4475V28.8783H13.101V28.702Z" fill="#BCBCBC"/>
<path d="M12.8832 27.9344L12.7794 28.5049L12.6653 27.9344V22.5093H12.8832V27.9344Z" fill="#757575"/>
<path d="M44.7592 27.5298C45.6644 27.5298 46.3982 27.1583 46.3982 26.7C46.3982 26.2417 45.6644 25.8702 44.7592 25.8702C43.8541 25.8702 43.1203 26.2417 43.1203 26.7C43.1203 27.1583 43.8541 27.5298 44.7592 27.5298Z" fill="#56432F"/>
<path d="M34.6976 23.474L41.5645 23.4636V24.252L36.8759 24.6461C36.8759 24.6461 35.9631 24.5943 35.9631 25.476L35.8282 29.0754H34.4797L34.6976 23.474Z" fill="#262625"/>
<path d="M41.2429 24.3972C41.2429 24.3972 41.7304 25.0714 41.6371 27.1253H42.4047V26.2125H42.0624C42.0624 26.2125 42.1142 24.2001 41.5437 23.9823L41.2429 24.3972Z" fill="#262625"/>
<path d="M44.5414 26.2125H42.3008V27.1253H44.5414V26.2125Z" fill="#56432F"/>
<path d="M41.5955 15.2482C41.5955 15.6217 41.2843 15.9225 40.8902 15.9225H33.7017C33.3075 15.9225 32.9963 15.6217 32.9963 15.2482C32.9963 14.8748 33.3075 14.574 33.7017 14.574H40.8902C41.2843 14.574 41.5955 14.8748 41.5955 15.2482Z" fill="#282826"/>
<path d="M32.3325 9.34604H29.1791V13.0077H32.3325V9.34604Z" fill="#A3D5E0"/>
<path d="M31.7828 9.34604H31.1812V13.0077H31.7828V9.34604Z" fill="#D9EAED"/>
<path d="M30.9633 8.23612L30.7558 8.16351L30.5691 8.23612V9.00372H30.9633V8.23612Z" fill="#3A3A38"/>
<path d="M30.7558 8.64069C30.0816 8.64069 29.1791 9.34605 29.1791 9.34605H32.3325C32.3325 9.34605 31.4301 8.64069 30.7558 8.64069Z" fill="#A79587"/>
<path d="M32.3325 12.655H29.1791V13.2255H32.3325V12.655Z" fill="#A79587"/>
<path d="M13.1011 24.3661C13.1011 24.3661 12.9558 24.4076 12.7691 24.4076C12.5824 24.4076 12.4372 24.3661 12.4372 24.3661V23.0591H13.0907V24.3661H13.1011Z" fill="#757575"/>
<path d="M13.1011 11.0576C13.1011 11.0576 12.9558 11.0991 12.7691 11.0991C12.5824 11.0991 12.4372 11.0576 12.4372 11.0576V9.75058H13.0907V11.0576H13.1011Z" fill="#757575"/>
<path d="M11.4932 23.1628V10.5182C11.4932 10.5182 12.4579 10.3833 13.4122 10.819C14.3769 11.2546 16.5137 13.7441 17.3851 13.962C18.2564 14.1798 21.8766 14.3976 23.4532 14.2628C25.0196 14.1279 28.2559 13.2151 29.1272 13.1321C29.1272 13.1321 33.3179 12.3438 34.3656 14.5325C34.3656 14.5325 34.9776 19.2418 34.8842 22.9035C34.7909 26.5651 34.7079 30.0608 34.7079 30.0608H28.1626C28.1626 30.0608 26.9386 30.2371 26.9386 29.1895C26.9386 29.1895 27.8514 27.1875 28.0277 26.6585C28.0277 26.6585 29.1584 24.4801 28.3285 20.7666C28.1107 19.7708 26.4925 18.495 24.1897 18.2771C21.8765 18.0593 17.6029 17.6236 17.6029 17.6236L14.7711 18.8476C14.7711 18.8476 14.0761 22.167 13.8064 22.5508C13.796 22.5508 13.8894 23.3391 11.4932 23.1628Z" fill="#3A3A38"/>
<path d="M29.065 21.2438C28.8057 18.1942 23.4428 17.883 23.4428 17.883C22.6545 17.7066 17.468 17.3125 17.468 17.3125L14.1487 18.6195L13.2981 23.028C13.8375 22.8413 13.8064 22.5404 13.8064 22.5404C14.0657 22.1463 14.7711 18.8373 14.7711 18.8373L17.6029 17.6133C17.6029 17.6133 21.8765 18.049 24.1897 18.2668C26.5029 18.4846 28.1107 19.7605 28.3285 20.7563C29.1583 24.4594 28.0277 26.6481 28.0277 26.6481C27.8513 27.1668 26.9385 29.1791 26.9385 29.1791C26.9385 29.5733 27.1149 29.8015 27.3327 29.9156C29.9467 25.5486 29.065 21.2438 29.065 21.2438Z" fill="#262625"/>
<path d="M12.1882 20.5488C12.8642 20.5488 13.4122 20.0008 13.4122 19.3248C13.4122 18.6488 12.8642 18.1008 12.1882 18.1008C11.5122 18.1008 10.9642 18.6488 10.9642 19.3248C10.9642 20.0008 11.5122 20.5488 12.1882 20.5488Z" fill="#363833"/>
<path d="M12.1882 20.0613C12.5949 20.0613 12.9247 19.7315 12.9247 19.3248C12.9247 18.9181 12.5949 18.5883 12.1882 18.5883C11.7815 18.5883 11.4517 18.9181 11.4517 19.3248C11.4517 19.7315 11.7815 20.0613 12.1882 20.0613Z" fill="#595B56"/>
<path d="M32.0318 25.8702C32.8166 25.8702 33.4528 25.0017 33.4528 23.9304C33.4528 22.8591 32.8166 21.9907 32.0318 21.9907C31.2469 21.9907 30.6107 22.8591 30.6107 23.9304C30.6107 25.0017 31.2469 25.8702 32.0318 25.8702Z" fill="#D7D1C5"/>
<path d="M13.6716 23.6814H12.9766V23.9096H13.6716V23.6814Z" fill="#757575"/>
<path d="M13.5574 24.2001C13.6548 24.2001 13.7337 24.0143 13.7337 23.7852C13.7337 23.556 13.6548 23.3703 13.5574 23.3703C13.46 23.3703 13.381 23.556 13.381 23.7852C13.381 24.0143 13.46 24.2001 13.5574 24.2001Z" fill="#757575"/>
<path d="M12.4994 27.3638H11.8044V27.592H12.4994V27.3638Z" fill="#ADADAD"/>
<path d="M11.9185 27.9032C12.0159 27.9032 12.0949 27.7175 12.0949 27.4883C12.0949 27.2592 12.0159 27.0734 11.9185 27.0734C11.8211 27.0734 11.7422 27.2592 11.7422 27.4883C11.7422 27.7175 11.8211 27.9032 11.9185 27.9032Z" fill="#ADADAD"/>
<path d="M13.101 28.9509H12.4475V29.3451H12.6861C12.6861 29.2102 12.6965 29.1272 12.7794 29.1272C12.8624 29.1272 12.8728 29.2206 12.8728 29.3451H13.101V28.9509Z" fill="#C6C6C6"/>
<path d="M13.101 29.3347H12.4475V29.4177H12.6861C12.6861 29.3866 12.6861 29.3658 12.6861 29.3451H12.8728C12.8728 29.3658 12.8728 29.397 12.8728 29.4177H13.101V29.3347Z" fill="#5B5B5A"/>
<path d="M12.7795 29.1273C12.6965 29.1273 12.6862 29.2206 12.6862 29.3451C12.6862 29.3658 12.6862 29.397 12.6862 29.4177H12.8729C12.8729 29.3866 12.8729 29.3658 12.8729 29.3451C12.8729 29.2102 12.8625 29.1273 12.7795 29.1273Z" fill="#727272"/>
<path d="M40.05 15.1341C40.05 14.7503 40.4027 14.4391 40.8383 14.4391C41.274 14.4391 41.6267 14.7503 41.6267 15.1341V23.9823C41.6267 24.3661 41.274 24.6773 40.8383 24.6773C40.4027 24.6773 40.05 24.3661 40.05 23.9823V15.1341Z" fill="#303030"/>
<path d="M40.05 15.1341C40.05 14.7503 40.4027 14.4391 40.8383 14.4391V24.6773C40.4027 24.6773 40.05 24.3661 40.05 23.9823V15.1341Z" fill="#141414"/>
<path d="M46.1389 31.7101H4.98944V37.2078H46.1389V31.7101Z" fill="#53372B"/>
<path d="M28.5878 14.1798C28.5878 14.1798 33.3386 12.655 33.7742 16.0988C33.7742 16.0988 30.5483 15.4868 28.5878 14.1798Z" fill="#AAAAAA"/>
<path d="M12.9559 9.02444H12.5617V10.2381H12.9559V9.02444Z" fill="#757575"/>
<path d="M12.7588 9.53272C13.1541 9.53272 13.4745 9.39804 13.4745 9.23191C13.4745 9.06577 13.1541 8.93109 12.7588 8.93109C12.3635 8.93109 12.043 9.06577 12.043 9.23191C12.043 9.39804 12.3635 9.53272 12.7588 9.53272Z" fill="#757575"/>
<path d="M35.0191 12.043C35.0191 11.7111 35.4133 11.4414 35.9008 11.4414C36.3883 11.4414 36.7825 11.7111 36.7825 12.043V18.4431C36.7825 18.7751 36.3883 19.0448 35.9008 19.0448C35.4133 19.0448 35.0191 18.7751 35.0191 18.4431V12.043Z" fill="#565656"/>
<path d="M35.8903 11.4414V19.0344C36.3778 19.0344 36.772 18.7647 36.772 18.4327V12.043C36.772 11.7111 36.3778 11.4414 35.8903 11.4414Z" fill="#141414"/>
<path d="M37.2285 10.4456C37.2285 9.95804 37.7887 9.5535 38.4836 9.5535C39.1786 9.5535 39.7388 9.94767 39.7388 10.4456V20.0094C39.7388 20.497 39.1786 20.9015 38.4836 20.9015C37.7887 20.9015 37.2285 20.5073 37.2285 20.0094V10.4456Z" fill="#B5A8A0"/>
<path d="M38.4837 9.5535V20.9015C39.1787 20.9015 39.7388 20.5073 39.7388 20.0094V10.4456C39.7285 9.95804 39.1683 9.5535 38.4837 9.5535Z" fill="#A79587"/>
</svg>
